<svg xmlns="http://www.w3.org/2000/svg" viewBox="0 0 200 80">
  <!-- Mascot (compact) -->
  <ellipse cx="40" cy="48" rx="18" ry="13" fill="#2D7A4A"/>
  <ellipse cx="40" cy="32" rx="15" ry="12" fill="#38956B"/>
  <ellipse cx="40" cy="42" rx="12" ry="6" fill="#38956B"/>
  <path d="M30 42 Q40 47 50 42" stroke="#1A4B2E" stroke-width="1.5" fill="#1A3D24" stroke-linecap="round"/>
  <rect x="33" y="43" width="3" height="4" rx="1.5" fill="white"/>
  <rect x="39" y="44" width="3" height="4" rx="1.5" fill="white"/>
  <rect x="45" y="43" width="3" height="4" rx="1.5" fill="white"/>
  <circle cx="33" cy="26" r="5.5" fill="white"/>
  <circle cx="47" cy="26" r="5.5" fill="white"/>
  <circle cx="33.8" cy="26.5" r="3.5" fill="#111827"/>
  <circle cx="47.8" cy="26.5" r="3.5" fill="#111827"/>
  <circle cx="32.5" cy="25" r="1.2" fill="white"/>
  <circle cx="46.5" cy="25" r="1.2" fill="white"/>
  <ellipse cx="22" cy="34" rx="3.5" ry="2" fill="#E91E8C" opacity="0.45"/>
  <ellipse cx="58" cy="34" rx="3.5" ry="2" fill="#E91E8C" opacity="0.45"/>

  <!-- Brand name -->
  <text x="72" y="36" font-family="Poppins, Arial, sans-serif" font-size="16" font-weight="700" fill="#F2F2F2">Carros</text>
  <text x="72" y="56" font-family="Poppins, Arial, sans-serif" font-size="12" font-weight="600" fill="#E91E8C" letter-spacing="2">MIK DUNDEE</text>
</svg>
